<?xml version="1.0" encoding="utf-8"?>
<!-- Generator: Adobe Illustrator 24.0.3, SVG Export Plug-In . SVG Version: 6.00 Build 0)  -->
<svg version="1.1" id="Layer_2" xmlns="http://www.w3.org/2000/svg" xmlns:xlink="http://www.w3.org/1999/xlink" x="0px" y="0px"
	 viewBox="0 0 35.31 36.26" style="enable-background:new 0 0 35.31 36.26;" xml:space="preserve">
<style type="text/css">
	.st0{fill:#FFFFFF;}
</style>
<g>
	<path class="st0" d="M34.3,16.08l-5.16,1.47c0.03,0.35,0.05,0.7,0.05,1.06c0,6.37-5.17,11.54-11.54,11.54
		c-6.37,0-11.54-5.17-11.54-11.54c0-6.37,5.17-11.54,11.54-11.54c2.33,0,4.47,0.72,6.29,1.91c-1.25,1.61-2.24,2.88-2.3,2.97h10.7
		l-2.78-10.2c0,0-1.03,1.32-2.35,3.01c-2.72-1.89-6-3.01-9.56-3.01C8.35,1.75,0.8,9.3,0.8,18.61c0,9.31,7.55,16.86,16.86,16.86
		c9.31,0,16.86-7.55,16.86-16.86C34.51,17.74,34.43,16.9,34.3,16.08z"/>
	<path d="M29.57,1.75l2.78,10.2h-10.7c0.06-0.09,1.05-1.36,2.3-2.97c-1.81-1.19-3.96-1.91-6.29-1.91c-6.37,0-11.54,5.17-11.54,11.54
		c0,6.37,5.17,11.54,11.54,11.54c6.37,0,11.54-5.17,11.54-11.54c0-0.36-0.02-0.71-0.05-1.06l5.16-1.47
		c0.12,0.83,0.21,1.67,0.21,2.53c0,9.31-7.55,16.86-16.86,16.86c-9.31,0-16.86-7.55-16.86-16.86C0.8,9.3,8.35,1.75,17.66,1.75
		c3.56,0,6.84,1.13,9.56,3.01C28.54,3.07,29.57,1.75,29.57,1.75 M29.92,0l-0.98,1.26l-1.89,2.43c-2.83-1.79-6.06-2.74-9.39-2.74
		C7.92,0.95,0,8.87,0,18.61s7.92,17.66,17.66,17.66c9.74,0,17.66-7.92,17.66-17.66c0-0.82-0.07-1.66-0.22-2.65l-0.14-0.9l-0.87,0.25
		l-5.16,1.47l-0.64,0.18l0.06,0.66c0.03,0.32,0.05,0.65,0.05,0.98c0,5.92-4.82,10.74-10.74,10.74c-5.92,0-10.74-4.82-10.74-10.74
		S11.73,7.86,17.66,7.86c1.77,0,3.52,0.46,5.1,1.33c-1.7,2.18-1.75,2.26-1.78,2.31l-0.83,1.24h1.49h10.7h1.05l-0.28-1.01l-2.78-10.2
		L29.92,0L29.92,0z"/>
</g>
</svg>
